 <!DOCTYPE svg PUBLIC "-//W3C//DTD SVG 1.1//EN" "http://www.w3.org/Graphics/SVG/1.1/DTD/svg11.dtd">
<svg id="b7c5a0d5-a947-41ee-9c3f-e6d8c51b057b" data-name="Layer 1" xmlns="http://www.w3.org/2000/svg" xmlns:xlink="http://www.w3.org/1999/xlink" width="865.76" height="682.89" viewBox="0 0 865.76 682.89">
<defs>
<clipPath id="a33d0446-6a61-455e-950d-288e026793b9">
<path id="a314ddbc-28c6-4f2c-bf95-49130bcd9a12" data-name="SVGID" d="M27,363.1A112.3,112.3,0,0,0,50,371.72c3.21-9,3.21-9,6.19-13.06,4.17-5.59,6.84-12.63,5.86-19.54A18.22,18.22,0,0,0,53,325.86C37.7,317.58,28.38,351.32,27,363.1Z" fill="none"/>
</clipPath>
<style xmlns="http://www.w3.org/1999/xhtml">*, ::after, ::before { box-sizing: border-box; }
img, svg { vertical-align: middle; }
</style>
<style xmlns="http://www.w3.org/1999/xhtml">*, body, html { -webkit-font-smoothing: antialiased; }
img, svg { max-width: 100%; }
</style>
</defs>
<path d="M447.82,143.61V75.36A35.26,35.26,0,0,0,412.56,40.1H190.78a35.27,35.27,0,0,0-35.27,35.26v34.21a7.25,7.25,0,0,0-3.88,6.41v8a7.25,7.25,0,0,0,3.88,6.42v22.25a7.25,7.25,0,0,0-3.88,6.41v26.31a7.25,7.25,0,0,0,3.88,6.42v17.67a7.25,7.25,0,0,0-3.88,6.42V242.2a7.25,7.25,0,0,0,3.88,6.42V600.47a35.26,35.26,0,0,0,35.27,35.26H412.56a35.25,35.25,0,0,0,35.26-35.26V218a8.25,8.25,0,0,0,6.57-8.09v-58.2A8.27,8.27,0,0,0,447.82,143.61Z" fill="#2f2e41" data-secondary="true"/>
<path d="M406.79,55.47H373.92a23.07,23.07,0,0,1,.25,3.35,21.87,21.87,0,0,1-5.36,14.55,17.24,17.24,0,0,1-12.91,6H245.41c-10.09,0-18.27-9.21-18.27-20.57a23.07,23.07,0,0,1,.25-3.35H196.26a23.93,23.93,0,0,0-23.93,23.92V599.63a23.94,23.94,0,0,0,23.93,23.93H406.79a23.93,23.93,0,0,0,23.92-23.93V79.39A23.92,23.92,0,0,0,406.79,55.47Z" fill="#fff"/>
<rect x="194.37" y="119.65" width="28.42" height="3.05" fill="#2f2e41" data-secondary="true"/>
<rect x="194.37" y="125.5" width="28.42" height="3.05" fill="#2f2e41" data-secondary="true"/>
<rect x="194.37" y="131.35" width="28.42" height="3.05" fill="#2f2e41" data-secondary="true"/>
<path d="M393,132.58a6.89,6.89,0,1,1,6.88-6.89A6.9,6.9,0,0,1,393,132.58Zm0-12.76a5.87,5.87,0,1,0,5.87,5.87A5.88,5.88,0,0,0,393,119.82Z" fill="#2f2e41" data-secondary="true"/>
<rect x="399.96" y="129.26" width="1.01" height="8" transform="translate(16.78 309.1) rotate(-43.03)" fill="#2f2e41" data-secondary="true"/>
<rect x="215.4" y="162.47" width="61.33" height="21.31" rx="10.66" fill="#2f2e41" data-secondary="true"/>
<rect x="215.4" y="194.66" width="182.34" height="8.26" rx="4.13" fill="#ccc"/>
<rect x="215.4" y="214.05" width="71.77" height="8.26" rx="4.13" fill="#ccc"/>
<rect x="215.4" y="264.16" width="61.33" height="21.31" rx="10.66" fill="#2f2e41" data-secondary="true"/>
<rect x="215.4" y="296.35" width="182.34" height="8.26" rx="4.13" fill="#ccc"/>
<rect x="215.4" y="315.73" width="75.25" height="8.26" rx="4.13" fill="#ccc"/>
<rect x="215.4" y="369.31" width="61.33" height="21.31" rx="10.66" fill="#3f3d56"/>
<rect x="215.4" y="401.5" width="182.34" height="8.26" rx="4.13" fill="#ccc"/>
<rect x="215.4" y="420.88" width="75.25" height="8.26" rx="4.13" fill="#ccc"/>
<rect x="215.4" y="465.37" width="61.33" height="21.31" rx="10.66" fill="#2f2e41" data-secondary="true"/>
<rect x="215.4" y="497.56" width="182.34" height="8.26" rx="4.13" fill="#ccc"/>
<rect x="215.4" y="516.94" width="75.25" height="8.26" rx="4.13" fill="#ccc"/>
<circle cx="298.53" cy="557.24" r="5.51" fill="#2f2e41" data-secondary="true"/>
<circle cx="284.46" cy="563.89" r="5.51" fill="#2f2e41" data-secondary="true"/>
<circle cx="276.73" cy="578.39" r="5.51" fill="#2f2e41" data-secondary="true"/>
<circle cx="284.46" cy="592.89" r="5.51" fill="#2f2e41" data-secondary="true"/>
<circle cx="298.53" cy="599.56" r="4.3" fill="#2f2e41" data-secondary="true"/>
<circle cx="313.32" cy="592.89" r="3.9" fill="#2f2e41" data-secondary="true"/>
<circle cx="319.94" cy="578.39" r="2.75" fill="#2f2e41" data-secondary="true"/>
<circle cx="313.32" cy="563.89" r="1.95" fill="#2f2e41" data-secondary="true"/>
<polygon points="626.96 581.65 334.15 581.65 334.15 580.64 625.95 580.64 625.95 486.68 626.96 486.68 626.96 581.65" fill="#2f2e41" data-secondary="true"/>
<rect x="495.96" y="387.36" width="254.03" height="75.25" rx="9" fill="#ccc"/>
<rect x="495.96" y="298.19" width="254.03" height="75.25" rx="9" fill="#ccc"/>
<rect x="495.96" y="209.02" width="254.03" height="75.25" rx="9" fill="#ccc"/>
<rect x="541.2" y="224.24" width="52.2" height="15.22" rx="7.61" fill="#2f2e41" data-secondary="true"/>
<rect x="541.2" y="246.64" width="164.86" height="8.26" rx="4.13" fill="#231f20" opacity="0.2"/>
<rect x="541.2" y="262.08" width="84.82" height="8.26" rx="4.13" fill="#231f20" opacity="0.2"/>
<rect x="541.56" y="313.85" width="52.2" height="15.22" rx="7.61" fill="#2f2e41" data-secondary="true"/>
<rect x="541.56" y="336.25" width="164.86" height="8.26" rx="4.13" fill="#231f20" opacity="0.2"/>
<rect x="541.56" y="351.69" width="84.82" height="8.26" rx="4.13" fill="#231f20" opacity="0.2"/>
<rect x="541.56" y="403.45" width="52.2" height="15.22" rx="7.61" fill="#2f2e41" data-secondary="true"/>
<rect x="541.56" y="425.86" width="183.2" height="8.26" rx="4.13" fill="#231f20" opacity="0.2"/>
<rect x="541.56" y="441.3" width="84.82" height="8.26" rx="4.13" fill="#231f20" opacity="0.2"/>
<path d="M170.86,370.31h0s-4.81.82-5,.84c-6.8.79-27.36,3.85-41.68,5.6-5.67.71-8.74,1.73-14.5-2.79-4.91-3.85-15.08-31.59-18.32-39.77A18.34,18.34,0,0,1,104,330c.57-.4,1.33.18,1.82.62a4.81,4.81,0,0,1,1.1,1.74q5.07,11.28,9.16,22.93c1.33,4,2.77,5.05,6.92,5.3,13.56,1,22.18,3.18,42.62,3.74L181.82,360l6.11.91,16.08,2.4s.48,2.36-2.65,2.65a85.33,85.33,0,0,1-11.53-.22l1.44,2.91a1.57,1.57,0,0,1-.74,2.12l-3.18,1.5-4.81.93-11.75-2.84" fill="#f9b499"/>
<path d="M193.31,366l-8.56-1.32c-.83.78-3.29,2.39-4.12,3.18,1,.55,3.87.45,4.9,1,0,0,2.88,3-2.95,4.3" fill="none" stroke="#f7a186" stroke-miterlimit="10"/>
<path d="M183.37,365.75c.85.76,3.43,3,5,3" fill="none" stroke="#f7a186" stroke-miterlimit="10"/>
<path d="M89.6,626.14l-2.3-15.39-14-.94,1.83,16.82A11.14,11.14,0,0,0,89.6,626.14Z" fill="#f9b499"/>
<path d="M88.8,642.41l-.46-.21a7,7,0,0,0-4.09-1.09,20.79,20.79,0,0,0-2.13.76c-3.14.92-6.36-2.11-7.5-5.73s-.74-7.61-.33-11.43a8.31,8.31,0,0,0,3.68,3.5h0a8.4,8.4,0,0,0,4.91.78H83a7.89,7.89,0,0,0,4.56-2.38,5,5,0,0,1,1.9-1.33,4.72,4.72,0,0,1,4,.64c15.8,8.7,15.18,7.58,24.74,11.93a2.9,2.9,0,0,1,1.77,3.7,2.63,2.63,0,0,1-.45.82Z" fill="#0071f2" data-primary="true"/>
<path d="M88.23,591.36c-7,8.92-15.73,20.34-15.73,20.34L65.87,598S80.57,580.08,88,561.31c0,3.66.38,7.69.52,9.91C88.87,578.08,88.26,584.48,88.23,591.36Z" fill="#263238"/>
<path d="M73.62,628.91a2.52,2.52,0,0,1-.63,1.58c-1.21,1.1-2.59-.85-3.64-2.13a107.56,107.56,0,0,1-8.65-13.11l-.89-7.09-2.32,1h-.3c-.23-.41-.47-.79-.69-1.19-5.31-9,.87-10.8,7.45-10.6.75,0,2.33.17,4.93,5a31.08,31.08,0,0,1,1.85,3.46A43.75,43.75,0,0,1,73.62,628.91Z" fill="#0071f2" data-primary="true"/>
<path d="M111.93,442.44a113.11,113.11,0,0,1-.26-11.79,19.89,19.89,0,0,0-7.66-15.9s-5.62,7.77-22,7.95H81.3a77.11,77.11,0,0,1-21.49-3.29,79.2,79.2,0,0,1-8.68-3.2,220.25,220.25,0,0,0-1.91,38.84c.79,16.08,9.28,91.62,12.21,114.57,2.41,19.14,9.13,38,10,46.14.42,3.86,9.1,2.55,13.25,1,5.42-2,5.8-3.19,5.8-3.19.29-5.94-1.42-16.32-1.4-22.25,14.66-18.7,37.45-48.4,38.05-52.93C131.67,503.18,112.52,446.07,111.93,442.44ZM98.82,533.15c-.35,2.39-5.14,14.92-10.6,28.6-.09-6,2.52-12.35,3.17-22.08,1.32-18.73-2.79-39.23-2.44-54.35C92.17,498.31,99.46,528.72,98.82,533.15Z" fill="#2f2e41" data-secondary="true"/>
<g opacity="0.2" style="isolation:isolate">
<path d="M52.48,449.78a.5.5,0,0,1-.14-1,14.4,14.4,0,0,0,8.7-6.86c2.22-3.63,3.81-11,4.34-13.37a.5.5,0,0,1,.59-.38.51.51,0,0,1,.39.6c-1.46,6.66-2.91,11.12-4.45,13.66a15.39,15.39,0,0,1-9.29,7.31Z"/>
</g>
<g opacity="0.2">
<rect x="88.62" y="561.25" width="1" height="28.96" rx="0.5"/>
</g>
<path d="M95.09,275a7.13,7.13,0,0,0-3-4c-9.61-6-26.59,2.55-28.6,10.31-2.19,8.4,2.42,20,2.42,20l-.53,17.43,16.92,3.13,1.47-12.15s6,1,9.2-.38,5.21-14.87,5.21-14.87C98.76,291.26,95.09,275,95.09,275Z" fill="#f9b499"/>
<path d="M94.48,316.7a29.28,29.28,0,0,0-7.22-.79c-3.32.34-2.65,2.54-6.73,2.57-5,0-14.73-4-19.74-1.64-12.54,5.7-14.65,6.25-16.48,8.76-4.82,6.63.24,45.94,2.95,57.44,2.16,9.16,1.93,32.94,5.9,36.7,7.38,7,17.71,5.82,27.67,4,8.65-1.66,22.78-3,26.25-12.07.47-1.18.36-6.12.09-13.26-.79-21.52.5-33.9.11-47.72l8.09-3.28S105.82,319.89,94.48,316.7Z" fill="#0071f2" data-primary="true"/>
<path d="M106.66,347.6a19.91,19.91,0,0,1,5.47-2.17l-7.95-13.34c-.8-1.32-2-2.87-3.5-2.65,0,2.65,3.11,7,4,9.69C105.08,340.14,107.48,347.19,106.66,347.6Z" opacity="0.2" style="isolation:isolate"/>
<g id="a579d648-6ef1-4ea7-ac3c-14c10c875379" data-name="freepik--freepik--character-2--inject-97--inject-2">
<path d="M65.78,313.12c-2.4.6-4.34.76-4.87,2.42-.34,1.06.48,2,1.33,2.94a50.39,50.39,0,0,0,12.19,9.07,34.3,34.3,0,0,1,7-8,38.49,38.49,0,0,1-14.58-5.88Z" fill="#0071f2" data-primary="true"/>
<path d="M83,314a4.51,4.51,0,0,1,3.58,1.86c1,1.17,1.93,5.94.92,9-2.37-2.65-3.85-6.75-7.22-5.65C82.88,318.35,83,314,83,314Z" fill="#0071f2" data-primary="true"/>
</g>
<g id="f94f3220-3db6-457e-94d8-b6df8cd2f511" data-name="freepik--freepik--character-2--inject-97--inject-2" opacity="0.2" style="isolation:isolate">
<path d="M65.78,313.12c-2.4.6-4.34.76-4.87,2.42-.34,1.06.48,2,1.33,2.94a50.39,50.39,0,0,0,12.19,9.07,34.3,34.3,0,0,1,7-8,38.49,38.49,0,0,1-14.58-5.88Z"/>
<path d="M83,314.05a4.51,4.51,0,0,1,3.58,1.86c1,1.17,1.93,5.94.92,9-2.37-2.65-3.85-6.75-7.22-5.65C82.88,318.4,83,314.05,83,314.05Z"/>
</g>
<path d="M82.9,308.9c-2.75-1.4.52,1.2.52,1.2a6.55,6.55,0,0,0,1.4,0h5.49A36.48,36.48,0,0,1,82.9,308.9Z" fill="#f4a48e"/>
<path d="M106.17,347.87l9.51-5a1,1,0,0,1,1.38.56l1,2.9a2.08,2.08,0,0,1-1,2.5l-9.7,5Z" fill="#0071f2" data-primary="true"/>
<path d="M106.17,347.87l9.51-5a1,1,0,0,1,1.38.56l1,2.9a2.08,2.08,0,0,1-1,2.5l-9.7,5Z" opacity="0.2" style="isolation:isolate"/>
<path d="M27,363.1A112.3,112.3,0,0,0,50,371.72c3.21-9,3.21-9,6.19-13.06,4.17-5.59,6.84-12.63,5.86-19.54A18.22,18.22,0,0,0,53,325.86C37.7,317.58,28.38,351.32,27,363.1Z" fill="#0071f2" data-primary="true"/>
<g clip-path="url(#a33d0446-6a61-455e-950d-288e026793b9)">
<path d="M40.77,331.63l4.06.66a10.48,10.48,0,0,0-5.13,8.2l2.65-2.09a84.31,84.31,0,0,1-.49,9.4c-.13,3.14.27,6.49,2.21,8.95a47.15,47.15,0,0,1,3.82-12.09c-.65,4.35-1.32,8.87,0,13.06.77,2.42,2.19,4.8,1.86,7.32-2.32-1.57-2.81-1.33-5.54-2.07-1.63-.4-5.3-2.22-6.91-2.59a12,12,0,0,1-5.54-2.28,8.86,8.86,0,0,1-2.05-1.32,9.64,9.64,0,0,1-.83-2.55,32.58,32.58,0,0,1,4.75-14.84c1.19-2.1,5.39-11.31,7.78-10.86C41.4,328.71,40.69,331.62,40.77,331.63Z" opacity="0.2" style="isolation:isolate"/>
</g>
<path d="M29.33,365,22.6,389.61l34.93,54.86s6.48-8.08,4.11-11.23c-4.73-6.28-12.57-31.43-17.8-42.92a13.45,13.45,0,0,1-.87-8.57l2.54-11.23S42.39,358.47,29.33,365Z" fill="#f9b499"/>
<path d="M24.71,356.81l-1,7,26.36,10.83,3.78-6.39a1.59,1.59,0,0,0-.79-2.28L26.76,355.61A1.51,1.51,0,0,0,24.71,356.81Z" fill="#0071f2" data-primary="true"/>
<path d="M24.71,356.81l-1,7,26.36,10.83,3.56-6a2,2,0,0,0-1-2.81L26.76,355.61A1.51,1.51,0,0,0,24.71,356.81Z" opacity="0.2" style="isolation:isolate"/>
<path d="M96.83,261.31a5,5,0,0,0-3.53-1.46c-10.21-1.14-20.38,1.87-30.22,4.84a14.27,14.27,0,0,0-5.67,2.65A12.51,12.51,0,0,0,54.57,272a20.49,20.49,0,0,0-1.63,7.84c.12,4.81,2.65,9.17,4,13.8s.77,10.6-3.45,12.89a19.16,19.16,0,0,0,7-4.07,6,6,0,0,1-3.31,4,11.6,11.6,0,0,0,6.62-1.67,9.57,9.57,0,0,1-3.18,3.21,8.73,8.73,0,0,0,8.14-4.1c2.55-4.23,1-9.6.13-14.45s-.5-11,4-13.25a12.87,12.87,0,0,1,3.75-1c4.79-.77,11.26-.64,15.74-2.55C95.75,271.13,99.57,264.83,96.83,261.31Z" fill="#2f2e41" data-secondary="true"/>
<g opacity="0.2">
<path d="M87.45,269.77h-.07a.38.38,0,0,1-.3-.44,3,3,0,0,0-1.87-3.3.39.39,0,0,1-.22-.49.37.37,0,0,1,.48-.21,3.71,3.71,0,0,1,2.35,4.14A.38.38,0,0,1,87.45,269.77Z"/>
</g>
<g opacity="0.2">
<path d="M89.78,269.73h-.09a.38.38,0,0,1-.27-.46,7.83,7.83,0,0,0,.14-3.3,2.39,2.39,0,0,0-2-1.91.37.37,0,0,1,.1-.74,3.13,3.13,0,0,1,2.68,2.51,8.88,8.88,0,0,1-.15,3.63A.38.38,0,0,1,89.78,269.73Z"/>
</g>
<g opacity="0.2">
<path d="M92.27,269.08a.38.38,0,0,1-.24-.66,2.42,2.42,0,0,0,.32-.32,2.55,2.55,0,0,0-.32-3.6.38.38,0,0,1,.49-.58,3.32,3.32,0,0,1,.41,4.66,3.18,3.18,0,0,1-.41.41A.38.38,0,0,1,92.27,269.08Z"/>
</g>
<g opacity="0.2">
<path d="M83.14,271.77a.36.36,0,0,1-.35-.25,2.66,2.66,0,0,0-2.06-1.7.38.38,0,0,1-.3-.44.36.36,0,0,1,.43-.3,3.41,3.41,0,0,1,2.63,2.19.37.37,0,0,1-.22.48Z"/>
</g>
<g opacity="0.2">
<path d="M84.86,270.13l-.37,0a1.53,1.53,0,0,0-.36-1.17,1.51,1.51,0,0,0-1-.53.37.37,0,0,1-.35-.4.38.38,0,0,1,.4-.35,2.29,2.29,0,0,1,2.1,2.46Z"/>
</g>
<path d="M83.06,293.94a2,2,0,0,1-2.29-1,6,6,0,0,1-.69-2.59,13.73,13.73,0,0,0-2,4c-.09-1.26-.18-2.52-.26-3.78l-1.92,2.65a12.06,12.06,0,0,1,.5-3.82l-10.19,1.49a26.74,26.74,0,0,1-1.89-7.29,9.05,9.05,0,0,1,2.28-7c3.44-3.4,9.54-4.81,11.87-.24C79.32,278.06,84.86,293.27,83.06,293.94Z" fill="#2f2e41" data-secondary="true"/>
<circle cx="626.46" cy="482.83" r="9.93" fill="#3f3d56"/>
</svg>